Coordinates
version=1
nRows=13
nColumns=22
inDegrees=yes

Units are S.I. units (second, meters, Newtons, ...)
If the header above contains a line with 'inDegrees', this indicates whether rotational values are in degrees (yes) or radians (no).

endheader
time	pelvis_tilt	pelvis_list	pelvis_rotation	pelvis_tx	pelvis_ty	pelvis_tz	hip_flexion_r	hip_adduction_r	hip_rotation_r	knee_angle_r	ankle_angle_r	subtalar_angle_r	hip_flexion_l	hip_adduction_l	hip_rotation_l	knee_angle_l	ankle_angle_l	subtalar_angle_l	lumbar_extension	lumbar_bending	lumbar_rotation
      0.01000000	     -2.13199275	     -4.18157153	     -1.66175881	     -1.49732110	      1.01371385	     -0.62384798	      1.53886035	      1.52428719	     -2.03128285	    -10.19850269	      8.92318653	      1.09678662	     -1.50663166	     -5.43080483	    -12.56773163	     -7.66434733	     11.47179762	     -3.07271521	     -1.96816580	      1.17290514	     -1.23056521
      0.02000000	     -2.10977271	     -4.18458684	     -1.62325848	     -1.49728842	      1.01374008	     -0.62384911	      1.51264561	      1.53045647	     -2.02837471	    -10.20478751	      8.93405771	      1.12000114	     -1.51595829	     -5.43890673	    -12.54480039	     -7.68231316	     11.46315102	     -3.08206929	     -1.98757991	      1.17648397	     -1.23176079
      0.03000000	     -2.10313794	     -4.18156891	     -1.59731268	     -1.49720146	      1.01374529	     -0.62385249	      1.50396048	      1.52894926	     -2.02389508	    -10.21621035	      8.93383784	      1.12124818	     -1.52186107	     -5.43725445	    -12.54472545	     -7.68350071	     11.46365592	     -3.08268041	     -1.97545394	      1.18184236	     -1.22542941
      0.04000000	     -2.04349221	     -4.18006357	     -1.52130023	     -1.49710758	      1.01381757	     -0.62391757	      1.43181187	      1.52608181	     -2.07653058	    -10.22130240	      8.96842922	      1.15273289	     -1.58528314	     -5.43441739	    -12.44786313	     -7.66975156	     11.47295752	     -3.09399378	     -2.03014516	      1.18447154	     -1.26485410
      0.05000000	     -2.00353897	     -4.17822409	     -1.47167490	     -1.49700615	      1.01387341	     -0.62392660	      1.38248998	      1.52621051	     -2.08840716	    -10.22769443	      8.96964340	      1.16951351	     -1.62492061	     -5.43515748	    -12.40430882	     -7.67073488	     11.46057904	     -3.09715517	     -2.05942594	      1.18458885	     -1.27552925
      0.06000000	     -1.98439573	     -4.17785270	     -1.43399922	     -1.49691339	      1.01389722	     -0.62391146	      1.36032550	      1.52956726	     -2.08457484	    -10.24189537	      8.97784878	      1.17011263	     -1.63739314	     -5.44006726	    -12.37398139	     -7.68518416	     11.46011872	     -3.09625483	     -2.06518473	      1.18612488	     -1.26951120
      0.07000000	     -1.97797779	     -4.17530835	     -1.40693405	     -1.49678934	      1.01390487	     -0.62388317	      1.34965839	      1.53058273	     -2.07943876	    -10.25387322	      8.97775158	      1.17007812	     -1.64491390	     -5.44194337	    -12.37360324	     -7.68766375	     11.46035550	     -3.09618416	     -2.04944242	      1.18686692	     -1.26444242
      0.08000000	     -1.92890010	     -4.18671410	     -1.33022042	     -1.49664179	      1.01396674	     -0.62392058	      1.27202644	      1.54452450	     -2.12876532	    -10.23389228	      8.99593515	      1.17178003	     -1.70120033	     -5.45627602	    -12.27667629	     -7.67260957	     11.47186763	     -3.08792641	     -2.08498231	      1.20147993	     -1.32232545
      0.09000000	     -1.92325127	     -4.18449842	     -1.30977727	     -1.49651084	      1.01397172	     -0.62387791	      1.26093165	      1.54626781	     -2.12444269	    -10.24365786	      8.99539049	      1.17188344	     -1.70835543	     -5.45886362	    -12.27596554	     -7.67803848	     11.47075804	     -3.08770471	     -2.06868206	      1.20024237	     -1.31679880
      0.10000000	     -1.90528609	     -4.19369911	     -1.26344244	     -1.49636765	      1.01399266	     -0.62384690	      1.20943744	      1.56219103	     -2.13065738	    -10.20628396	      9.01615635	      1.17169411	     -1.72482000	     -5.47583706	    -12.22497384	     -7.68492269	     11.46577665	     -3.08069117	     -2.06745715	      1.20539322	     -1.33174753
      0.11000000	     -1.90010432	     -4.19216028	     -1.24910242	     -1.49623304	      1.01399601	     -0.62378995	      1.19844348	      1.56456775	     -2.12868095	    -10.21612693	      9.01455730	      1.17204959	     -1.73426058	     -5.47915418	    -12.22421225	     -7.68759054	     11.46624348	     -3.08036615	     -2.05065332	      1.20396661	     -1.33253642
      0.12000000	     -1.86367319	     -4.21246014	     -1.19120222	     -1.49606105	      1.01404248	     -0.62378197	      1.12121030	      1.59054791	     -2.16837428	    -10.17107692	      9.00857603	      1.17994344	     -1.78209710	     -5.50479277	    -12.14730652	     -7.67201726	     11.47243339	     -3.06357763	     -2.06864315	      1.22573745	     -1.39293153
      0.13000000	     -1.85939355	     -4.21320228	     -1.17565203	     -1.49590248	      1.01404466	     -0.62371193	      1.09331478	      1.59672364	     -2.17188725	    -10.14900110	      9.01560682	      1.18070455	     -1.79511994	     -5.51099369	    -12.14584467	     -7.66728206	     11.47271713	     -3.05988266	     -2.04930888	      1.22428540	     -1.40235102
